<svg xmlns="http://www.w3.org/2000/svg" xmlns:xlink="http://www.w3.org/1999/xlink" width="180" zoomAndPan="magnify" viewBox="0 0 135 67.499998" height="90" preserveAspectRatio="xMidYMid meet" version="1.0"><defs><g/><clipPath id="df7d7a5945"><path d="M 17 24 L 42 24 L 42 61 L 17 61 Z M 17 24 " clip-rule="nonzero"/></clipPath><clipPath id="93c1220120"><path d="M 40.488281 63.324219 L 9.710938 54.519531 L 18.3125 24.457031 L 49.089844 33.261719 Z M 40.488281 63.324219 " clip-rule="nonzero"/></clipPath><clipPath id="e863a56e9a"><path d="M 40.488281 63.324219 L 9.710938 54.519531 L 18.3125 24.457031 L 49.089844 33.261719 Z M 40.488281 63.324219 " clip-rule="nonzero"/></clipPath></defs><g clip-path="url(#df7d7a5945)"><g clip-path="url(#93c1220120)"><g clip-path="url(#e863a56e9a)"><path fill="#0a0a0a" d="M 29.929688 60.257812 C 29.714844 60.207031 29.414062 60 29.261719 59.800781 C 29.050781 59.527344 29.015625 59.332031 29.113281 58.992188 C 29.183594 58.746094 29.695312 57.832031 30.25 56.960938 C 30.804688 56.089844 31.273438 55.320312 31.292969 55.25 C 31.3125 55.179688 30.984375 54.851562 30.566406 54.519531 C 30.144531 54.191406 29.222656 53.328125 28.515625 52.601562 C 27.808594 51.875 26.882812 50.851562 26.464844 50.328125 C 26.039062 49.804688 25.28125 48.761719 24.769531 48.007812 C 24.261719 47.257812 23.445312 45.882812 22.957031 44.949219 C 22.472656 44.015625 21.714844 42.402344 21.28125 41.363281 C 20.84375 40.324219 20.21875 38.648438 19.890625 37.640625 C 19.5625 36.628906 19.121094 35.132812 18.914062 34.308594 C 18.703125 33.488281 18.382812 31.960938 18.207031 30.917969 C 18.027344 29.878906 17.851562 28.363281 17.816406 27.550781 C 17.777344 26.738281 17.789062 25.914062 17.84375 25.722656 C 17.898438 25.527344 18.117188 25.253906 18.328125 25.113281 C 18.585938 24.945312 18.851562 24.894531 19.128906 24.960938 C 19.386719 25.027344 19.617188 25.191406 19.730469 25.394531 C 19.832031 25.578125 19.914062 26.160156 19.910156 26.695312 C 19.90625 27.226562 19.972656 28.210938 20.054688 28.882812 C 20.136719 29.554688 20.394531 31.035156 20.625 32.167969 C 20.855469 33.300781 21.261719 34.945312 21.53125 35.820312 C 21.800781 36.699219 22.253906 38.046875 22.542969 38.8125 C 22.832031 39.582031 23.417969 40.964844 23.839844 41.886719 C 24.261719 42.8125 24.9375 44.152344 25.335938 44.871094 C 25.734375 45.585938 26.460938 46.738281 26.949219 47.429688 C 27.4375 48.121094 28.285156 49.195312 28.828125 49.820312 C 29.375 50.445312 30.289062 51.394531 30.859375 51.929688 C 31.429688 52.464844 32.039062 53.011719 32.523438 53.382812 L 33.136719 52.414062 C 33.476562 51.882812 33.953125 51.128906 34.195312 50.742188 C 34.441406 50.355469 34.773438 49.964844 34.9375 49.878906 C 35.113281 49.789062 35.429688 49.777344 35.714844 49.859375 C 36.171875 49.992188 36.316406 50.214844 38.867188 54.816406 C 41.265625 59.144531 41.527344 59.679688 41.425781 60.054688 C 41.347656 60.332031 41.15625 60.5625 40.847656 60.75 C 40.410156 61.015625 40.132812 61.011719 35.351562 60.695312 C 32.585938 60.507812 30.144531 60.3125 29.933594 60.257812 Z M 29.929688 60.257812 " fill-opacity="1" fill-rule="nonzero"/></g></g></g><g fill="#0a0a0a" fill-opacity="1"><g transform="translate(28.162749, 47.254462)"><g><path d="M 6.203125 -0.296875 C 6.148438 -1.140625 6.097656 -1.953125 6.046875 -2.734375 C 5.992188 -3.515625 5.941406 -4.273438 5.890625 -5.015625 L 5.390625 -13.1875 C 5.378906 -13.8125 5.359375 -14.378906 5.328125 -14.890625 C 5.304688 -15.398438 5.273438 -15.898438 5.234375 -16.390625 C 5.203125 -16.878906 5.164062 -17.375 5.125 -17.875 C 5.082031 -18.375 5.035156 -18.929688 4.984375 -19.546875 C 4.609375 -19.503906 4.210938 -19.457031 3.796875 -19.40625 C 3.390625 -19.351562 2.953125 -19.289062 2.484375 -19.21875 L -0.8125 -18.765625 C -0.9375 -18.753906 -1.019531 -18.796875 -1.0625 -18.890625 C -1.113281 -18.984375 -1.144531 -19.070312 -1.15625 -19.15625 L -1.171875 -19.25 L 0.03125 -24.453125 L 0.015625 -24.53125 C 0.00390625 -24.582031 0.03125 -24.632812 0.09375 -24.6875 C 0.164062 -24.738281 0.332031 -24.796875 0.59375 -24.859375 C 2.144531 -25.171875 3.65625 -25.472656 5.125 -25.765625 C 6.59375 -26.054688 8.046875 -26.332031 9.484375 -26.59375 C 10.921875 -26.863281 12.351562 -27.128906 13.78125 -27.390625 C 15.21875 -27.660156 16.703125 -27.929688 18.234375 -28.203125 C 18.367188 -28.222656 18.515625 -28.222656 18.671875 -28.203125 C 18.828125 -28.191406 18.914062 -28.078125 18.9375 -27.859375 C 18.945312 -27.835938 18.945312 -27.8125 18.9375 -27.78125 C 18.925781 -27.757812 18.925781 -27.738281 18.9375 -27.71875 C 18.820312 -27.238281 18.710938 -26.769531 18.609375 -26.3125 C 18.515625 -25.863281 18.421875 -25.425781 18.328125 -25 C 18.234375 -24.570312 18.140625 -24.132812 18.046875 -23.6875 C 17.953125 -23.25 17.847656 -22.78125 17.734375 -22.28125 C 17.722656 -22.269531 17.707031 -22.210938 17.6875 -22.109375 C 17.664062 -22.003906 17.628906 -21.890625 17.578125 -21.765625 C 17.523438 -21.640625 17.445312 -21.515625 17.34375 -21.390625 C 17.25 -21.273438 17.113281 -21.203125 16.9375 -21.171875 C 16.882812 -21.171875 16.828125 -21.164062 16.765625 -21.15625 C 16.710938 -21.15625 16.648438 -21.148438 16.578125 -21.140625 L 12 -20.5 C 12.019531 -19.914062 12.050781 -19.289062 12.09375 -18.625 C 12.132812 -17.96875 12.160156 -17.328125 12.171875 -16.703125 L 12.78125 -3.15625 C 12.769531 -3.050781 12.757812 -2.941406 12.75 -2.828125 C 12.738281 -2.722656 12.675781 -2.640625 12.5625 -2.578125 L 7.953125 -0.171875 C 7.828125 -0.109375 7.664062 -0.03125 7.46875 0.0625 C 7.28125 0.15625 7.085938 0.21875 6.890625 0.25 C 6.722656 0.269531 6.570312 0.25 6.4375 0.1875 C 6.3125 0.125 6.234375 -0.0078125 6.203125 -0.21875 Z M 6.203125 -0.296875 "/></g></g></g><g fill="#0a0a0a" fill-opacity="1"><g transform="translate(47.52438, 44.585805)"><g><path d="M 9.625 -20.796875 C 10.707031 -20.941406 11.71875 -20.875 12.65625 -20.59375 C 13.601562 -20.3125 14.4375 -19.890625 15.15625 -19.328125 C 15.882812 -18.773438 16.472656 -18.125 16.921875 -17.375 C 17.367188 -16.625 17.648438 -15.851562 17.765625 -15.0625 C 17.859375 -14.34375 17.738281 -13.59375 17.40625 -12.8125 C 17.070312 -12.039062 16.550781 -11.316406 15.84375 -10.640625 C 15.132812 -9.960938 14.257812 -9.375 13.21875 -8.875 C 12.175781 -8.375 11.003906 -8.03125 9.703125 -7.84375 C 9.003906 -7.75 8.269531 -7.71875 7.5 -7.75 C 7.613281 -7.257812 7.8125 -6.851562 8.09375 -6.53125 C 8.382812 -6.21875 8.726562 -5.972656 9.125 -5.796875 C 9.53125 -5.628906 9.972656 -5.519531 10.453125 -5.46875 C 10.929688 -5.425781 11.410156 -5.441406 11.890625 -5.515625 C 12.441406 -5.585938 12.960938 -5.703125 13.453125 -5.859375 C 13.953125 -6.023438 14.421875 -6.21875 14.859375 -6.4375 C 15.304688 -6.664062 15.734375 -6.90625 16.140625 -7.15625 C 16.554688 -7.414062 16.941406 -7.671875 17.296875 -7.921875 C 17.398438 -7.960938 17.488281 -7.992188 17.5625 -8.015625 C 17.632812 -8.046875 17.703125 -8.0625 17.765625 -8.0625 C 17.765625 -8.0625 17.773438 -7.96875 17.796875 -7.78125 C 17.816406 -7.601562 17.847656 -7.347656 17.890625 -7.015625 C 17.941406 -6.691406 17.992188 -6.289062 18.046875 -5.8125 C 18.109375 -5.34375 18.175781 -4.828125 18.25 -4.265625 C 18.289062 -4.203125 18.316406 -4.144531 18.328125 -4.09375 C 18.347656 -4.039062 18.363281 -4 18.375 -3.96875 C 18.382812 -3.820312 18.273438 -3.648438 18.046875 -3.453125 C 17.828125 -3.265625 17.523438 -3.054688 17.140625 -2.828125 C 16.753906 -2.597656 16.3125 -2.367188 15.8125 -2.140625 C 15.3125 -1.910156 14.800781 -1.691406 14.28125 -1.484375 C 13.769531 -1.273438 13.269531 -1.097656 12.78125 -0.953125 C 12.289062 -0.816406 11.859375 -0.722656 11.484375 -0.671875 C 10.242188 -0.503906 9.015625 -0.550781 7.796875 -0.8125 C 6.578125 -1.082031 5.460938 -1.550781 4.453125 -2.21875 C 3.453125 -2.894531 2.601562 -3.769531 1.90625 -4.84375 C 1.21875 -5.914062 0.773438 -7.164062 0.578125 -8.59375 C 0.367188 -10.09375 0.429688 -11.53125 0.765625 -12.90625 C 1.097656 -14.28125 1.660156 -15.515625 2.453125 -16.609375 C 3.253906 -17.710938 4.257812 -18.632812 5.46875 -19.375 C 6.6875 -20.113281 8.070312 -20.585938 9.625 -20.796875 Z M 10.0625 -16.203125 C 9.59375 -16.140625 9.171875 -15.984375 8.796875 -15.734375 C 8.429688 -15.492188 8.109375 -15.160156 7.828125 -14.734375 C 7.554688 -14.316406 7.335938 -13.832031 7.171875 -13.28125 C 7.003906 -12.726562 6.890625 -12.128906 6.828125 -11.484375 C 7.972656 -11.847656 8.921875 -12.195312 9.671875 -12.53125 C 10.421875 -12.863281 11.007812 -13.179688 11.4375 -13.484375 C 11.875 -13.785156 12.171875 -14.0625 12.328125 -14.3125 C 12.492188 -14.570312 12.5625 -14.8125 12.53125 -15.03125 C 12.5 -15.238281 12.394531 -15.425781 12.21875 -15.59375 C 12.039062 -15.757812 11.828125 -15.890625 11.578125 -15.984375 C 11.335938 -16.085938 11.078125 -16.15625 10.796875 -16.1875 C 10.523438 -16.226562 10.28125 -16.234375 10.0625 -16.203125 Z M 10.0625 -16.203125 "/></g></g></g><g fill="#0a0a0a" fill-opacity="1"><g transform="translate(66.594814, 41.957284)"><g><path d="M 0.5625 -8.59375 C 0.351562 -10.09375 0.4375 -11.53125 0.8125 -12.90625 C 1.1875 -14.289062 1.789062 -15.535156 2.625 -16.640625 C 3.46875 -17.742188 4.515625 -18.664062 5.765625 -19.40625 C 7.023438 -20.15625 8.4375 -20.640625 10 -20.859375 C 11.050781 -20.992188 11.96875 -21.03125 12.75 -20.96875 C 13.539062 -20.914062 14.1875 -20.8125 14.6875 -20.65625 C 15.1875 -20.507812 15.5625 -20.359375 15.8125 -20.203125 C 16.070312 -20.054688 16.203125 -19.976562 16.203125 -19.96875 C 16.210938 -19.914062 16.210938 -19.726562 16.203125 -19.40625 C 16.203125 -19.082031 16.195312 -18.707031 16.1875 -18.28125 C 16.175781 -17.851562 16.175781 -17.414062 16.1875 -16.96875 C 16.195312 -16.53125 16.222656 -16.148438 16.265625 -15.828125 C 16.273438 -15.765625 16.265625 -15.695312 16.234375 -15.625 C 16.210938 -15.550781 16.125 -15.503906 15.96875 -15.484375 C 15.832031 -15.460938 15.625 -15.484375 15.34375 -15.546875 C 15.070312 -15.609375 14.738281 -15.671875 14.34375 -15.734375 C 13.945312 -15.796875 13.492188 -15.84375 12.984375 -15.875 C 12.472656 -15.90625 11.914062 -15.878906 11.3125 -15.796875 C 10.5625 -15.691406 9.898438 -15.460938 9.328125 -15.109375 C 8.765625 -14.753906 8.300781 -14.304688 7.9375 -13.765625 C 7.570312 -13.234375 7.316406 -12.625 7.171875 -11.9375 C 7.023438 -11.257812 7.003906 -10.546875 7.109375 -9.796875 C 7.210938 -8.992188 7.425781 -8.332031 7.75 -7.8125 C 8.070312 -7.300781 8.460938 -6.898438 8.921875 -6.609375 C 9.378906 -6.328125 9.882812 -6.140625 10.4375 -6.046875 C 11 -5.960938 11.570312 -5.960938 12.15625 -6.046875 C 12.851562 -6.140625 13.535156 -6.328125 14.203125 -6.609375 C 14.867188 -6.890625 15.488281 -7.242188 16.0625 -7.671875 C 16.09375 -7.691406 16.140625 -7.703125 16.203125 -7.703125 C 16.265625 -7.710938 16.3125 -7.691406 16.34375 -7.640625 C 16.375 -7.585938 16.398438 -7.484375 16.421875 -7.328125 C 16.472656 -6.953125 16.535156 -6.503906 16.609375 -5.984375 C 16.679688 -5.472656 16.742188 -4.976562 16.796875 -4.5 C 16.859375 -4.03125 16.90625 -3.628906 16.9375 -3.296875 C 16.976562 -2.960938 16.992188 -2.796875 16.984375 -2.796875 C 16.609375 -2.460938 16.191406 -2.175781 15.734375 -1.9375 C 15.273438 -1.695312 14.800781 -1.488281 14.3125 -1.3125 C 13.820312 -1.144531 13.320312 -1.007812 12.8125 -0.90625 C 12.300781 -0.800781 11.804688 -0.71875 11.328125 -0.65625 C 9.984375 -0.46875 8.707031 -0.519531 7.5 -0.8125 C 6.289062 -1.101562 5.203125 -1.59375 4.234375 -2.28125 C 3.273438 -2.96875 2.472656 -3.84375 1.828125 -4.90625 C 1.179688 -5.976562 0.757812 -7.207031 0.5625 -8.59375 Z M 0.5625 -8.59375 "/></g></g></g><g fill="#0a0a0a" fill-opacity="1"><g transform="translate(84.140743, 39.538889)"><g><path d="M 0.578125 -25.453125 C 0.566406 -25.515625 0.554688 -25.570312 0.546875 -25.625 C 0.535156 -25.6875 0.523438 -25.75 0.515625 -25.8125 C 0.503906 -25.914062 0.53125 -26.003906 0.59375 -26.078125 C 0.65625 -26.160156 0.835938 -26.265625 1.140625 -26.390625 L 5.796875 -28.21875 C 5.910156 -28.25 6.066406 -28.320312 6.265625 -28.4375 C 6.460938 -28.550781 6.660156 -28.625 6.859375 -28.65625 C 7.253906 -28.707031 7.476562 -28.550781 7.53125 -28.1875 C 7.53125 -28.15625 7.539062 -27.914062 7.5625 -27.46875 C 7.59375 -27.019531 7.625 -26.457031 7.65625 -25.78125 C 7.695312 -25.113281 7.738281 -24.382812 7.78125 -23.59375 C 7.820312 -22.800781 7.851562 -22.046875 7.875 -21.328125 C 7.90625 -20.617188 7.925781 -19.992188 7.9375 -19.453125 C 7.957031 -18.910156 7.960938 -18.554688 7.953125 -18.390625 C 8.441406 -18.753906 8.957031 -19.109375 9.5 -19.453125 C 10.050781 -19.796875 10.609375 -20.109375 11.171875 -20.390625 C 11.734375 -20.671875 12.300781 -20.898438 12.875 -21.078125 C 13.445312 -21.265625 14.007812 -21.398438 14.5625 -21.484375 C 15.25 -21.578125 15.910156 -21.566406 16.546875 -21.453125 C 17.191406 -21.335938 17.769531 -21.078125 18.28125 -20.671875 C 18.789062 -20.273438 19.226562 -19.722656 19.59375 -19.015625 C 19.957031 -18.304688 20.210938 -17.40625 20.359375 -16.3125 C 20.398438 -16.039062 20.429688 -15.753906 20.453125 -15.453125 C 20.484375 -15.160156 20.5 -14.863281 20.5 -14.5625 L 20.734375 -7.4375 C 20.742188 -6.96875 20.773438 -6.46875 20.828125 -5.9375 C 20.890625 -5.414062 20.960938 -4.878906 21.046875 -4.328125 C 21.054688 -4.234375 21.066406 -4.15625 21.078125 -4.09375 C 21.085938 -4.03125 21.097656 -3.972656 21.109375 -3.921875 C 21.117188 -3.816406 21.085938 -3.734375 21.015625 -3.671875 C 20.941406 -3.609375 20.765625 -3.507812 20.484375 -3.375 L 16.4375 -1.625 C 16.3125 -1.582031 16.15625 -1.507812 15.96875 -1.40625 C 15.78125 -1.300781 15.585938 -1.238281 15.390625 -1.21875 C 15.191406 -1.1875 15.035156 -1.203125 14.921875 -1.265625 C 14.804688 -1.335938 14.726562 -1.5 14.6875 -1.75 C 14.65625 -2.613281 14.628906 -3.3125 14.609375 -3.84375 C 14.585938 -4.382812 14.566406 -4.8125 14.546875 -5.125 C 14.535156 -5.445312 14.53125 -5.691406 14.53125 -5.859375 C 14.53125 -6.035156 14.523438 -6.1875 14.515625 -6.3125 C 14.515625 -6.445312 14.507812 -6.597656 14.5 -6.765625 C 14.5 -6.941406 14.492188 -7.191406 14.484375 -7.515625 C 14.472656 -7.835938 14.457031 -8.257812 14.4375 -8.78125 C 14.414062 -9.3125 14.390625 -10.015625 14.359375 -10.890625 C 14.335938 -11.359375 14.316406 -11.816406 14.296875 -12.265625 C 14.285156 -12.722656 14.253906 -13.144531 14.203125 -13.53125 C 14.140625 -14.007812 14.054688 -14.441406 13.953125 -14.828125 C 13.847656 -15.210938 13.710938 -15.535156 13.546875 -15.796875 C 13.378906 -16.054688 13.164062 -16.25 12.90625 -16.375 C 12.644531 -16.507812 12.34375 -16.554688 12 -16.515625 C 11.738281 -16.472656 11.390625 -16.359375 10.953125 -16.171875 C 10.523438 -15.992188 10.097656 -15.742188 9.671875 -15.421875 C 9.253906 -15.109375 8.898438 -14.710938 8.609375 -14.234375 C 8.328125 -13.765625 8.207031 -13.207031 8.25 -12.5625 C 8.28125 -11.675781 8.304688 -10.945312 8.328125 -10.375 C 8.347656 -9.8125 8.363281 -9.34375 8.375 -8.96875 C 8.394531 -8.601562 8.410156 -8.304688 8.421875 -8.078125 C 8.441406 -7.859375 8.457031 -7.660156 8.46875 -7.484375 C 8.46875 -7.421875 8.46875 -7.28125 8.46875 -7.0625 C 8.476562 -6.84375 8.488281 -6.570312 8.5 -6.25 C 8.507812 -5.9375 8.519531 -5.601562 8.53125 -5.25 C 8.550781 -4.90625 8.566406 -4.570312 8.578125 -4.25 C 8.597656 -3.9375 8.613281 -3.671875 8.625 -3.453125 C 8.632812 -3.234375 8.644531 -3.09375 8.65625 -3.03125 C 8.664062 -2.9375 8.675781 -2.859375 8.6875 -2.796875 C 8.707031 -2.734375 8.722656 -2.675781 8.734375 -2.625 C 8.742188 -2.53125 8.710938 -2.441406 8.640625 -2.359375 C 8.566406 -2.285156 8.382812 -2.191406 8.09375 -2.078125 L 3.828125 0.109375 C 3.710938 0.171875 3.554688 0.25 3.359375 0.34375 C 3.160156 0.4375 2.960938 0.5 2.765625 0.53125 C 2.609375 0.550781 2.460938 0.519531 2.328125 0.4375 C 2.203125 0.363281 2.125 0.210938 2.09375 -0.015625 Z M 0.578125 -25.453125 "/></g></g></g><g fill="#ff3131" fill-opacity="1"><g transform="translate(43.50584, 60.342384)"><g><path d="M 3.984375 -0.375 C 5.65625 -0.609375 6.59375 -1.296875 7.171875 -2.09375 C 7.265625 -1.921875 7.328125 -1.78125 7.453125 -1.5625 C 7.625 -1.125 8.015625 -0.953125 8.515625 -1.015625 C 8.734375 -1.046875 8.984375 -1.125 9.203125 -1.25 C 9.8125 -1.578125 10.09375 -1.90625 10.03125 -2.28125 C 10.015625 -2.421875 9.96875 -2.546875 9.890625 -2.6875 C 9.640625 -3.0625 9.34375 -3.703125 9.265625 -4.25 C 9.171875 -4.984375 9.140625 -5.515625 9 -6.53125 C 8.703125 -8.734375 6.625 -9.734375 4.09375 -9.390625 C 2.546875 -9.171875 1.265625 -8.78125 0.5625 -8.21875 C 0.296875 -8 0.140625 -7.75 0.1875 -7.453125 C 0.203125 -7.28125 0.28125 -7.078125 0.4375 -6.859375 C 0.734375 -6.40625 1 -6.21875 1.40625 -6.28125 C 1.578125 -6.296875 1.75 -6.375 1.953125 -6.46875 C 2.625 -6.84375 3.25 -7.15625 4.109375 -7.265625 C 5.234375 -7.421875 6.078125 -7.078125 6.328125 -6.234375 C 6.359375 -6.046875 6.421875 -5.78125 6.453125 -5.53125 C 5.6875 -5.953125 4.6875 -6.15625 3.71875 -6.015625 C 0.84375 -5.625 -0.03125 -4.3125 0.1875 -2.671875 C 0.421875 -0.96875 1.734375 -0.0625 3.984375 -0.375 Z M 2.78125 -3.265625 C 2.703125 -3.8125 3.078125 -4.265625 4.140625 -4.40625 C 5.03125 -4.53125 5.953125 -4.296875 6.46875 -3.734375 C 5.890625 -3.046875 5.28125 -2.6875 4.359375 -2.5625 C 3.40625 -2.421875 2.859375 -2.671875 2.78125 -3.265625 Z M 2.78125 -3.265625 "/></g></g></g><g fill="#ff3131" fill-opacity="1"><g transform="translate(54.206802, 58.867926)"><g><path d="M 4.96875 -0.515625 C 6.265625 -0.6875 7.25 -1.390625 7.8125 -2.53125 C 7.953125 -2.171875 8.078125 -1.859375 8.234375 -1.640625 C 8.515625 -1.1875 8.796875 -1.03125 9.140625 -1.078125 C 9.390625 -1.125 9.703125 -1.265625 10.09375 -1.5 C 10.546875 -1.75 10.75 -2.03125 10.703125 -2.4375 C 10.671875 -2.625 10.59375 -2.859375 10.46875 -3.109375 C 9.953125 -4.0625 9.765625 -5.125 9.40625 -7.734375 C 9.109375 -9.90625 8.984375 -12.46875 8.859375 -13.328125 C 8.765625 -14.046875 8.578125 -14.296875 7.28125 -14.125 C 6.375 -14 6.171875 -13.703125 6.265625 -12.8125 C 6.328125 -12.109375 6.484375 -10.359375 6.65625 -8.734375 C 5.921875 -9.265625 4.921875 -9.5 3.65625 -9.328125 C 0.75 -8.921875 -0.34375 -7 0 -4.453125 C 0.4375 -1.3125 2.34375 -0.140625 4.96875 -0.515625 Z M 2.625 -4.75 C 2.46875 -5.90625 3.015625 -6.90625 4.375 -7.09375 C 5.5 -7.25 6.375 -6.75 6.890625 -5.65625 C 6.78125 -4.03125 6.0625 -3.0625 4.890625 -2.90625 C 3.640625 -2.734375 2.828125 -3.25 2.625 -4.75 Z M 2.625 -4.75 "/></g></g></g><g fill="#ff3131" fill-opacity="1"><g transform="translate(65.738745, 57.27897)"><g><path d="M 4.734375 -0.46875 C 5.359375 -0.5625 5.890625 -0.828125 6.375 -1.234375 C 8.25 -2.9375 9.125 -5.875 8.71875 -9.15625 C 8.640625 -9.6875 8.328125 -9.96875 7.28125 -9.828125 C 6.390625 -9.703125 6.03125 -9.34375 6.109375 -8.796875 C 6.40625 -6.234375 5.5625 -4.0625 4.5 -2.796875 C 3.4375 -3.78125 2.375 -5.703125 2.046875 -8.28125 C 1.953125 -8.921875 1.40625 -9.015625 0.5625 -8.890625 C -0.3125 -8.78125 -0.671875 -8.515625 -0.5625 -7.8125 C -0.140625 -4.625 1 -2.046875 2.953125 -0.796875 C 3.484375 -0.515625 4.078125 -0.390625 4.734375 -0.46875 Z M 4.734375 -0.46875 "/></g></g></g><g fill="#ff3131" fill-opacity="1"><g transform="translate(76.032698, 55.860593)"><g><path d="M 2.359375 -0.140625 C 3.171875 -0.265625 3.5 -0.5625 3.375 -1.484375 C 3.25 -2.40625 3.078125 -4.859375 2.96875 -5.6875 C 2.90625 -6.1875 2.859375 -6.640625 2.796875 -7.078125 C 2.75 -7.453125 2.6875 -7.8125 2.59375 -8.234375 C 2.421875 -8.90625 2 -9.09375 1.328125 -9 C 1.234375 -8.984375 1.09375 -8.96875 0.953125 -8.9375 C 0.109375 -8.6875 -0.078125 -8.3125 0.015625 -7.609375 C 0.09375 -7.0625 0.1875 -6.5625 0.265625 -6.03125 C 0.34375 -5.484375 0.40625 -4.890625 0.484375 -4.21875 C 0.625 -2.921875 0.640625 -2.046875 0.78125 -0.96875 C 0.890625 -0.25 1.203125 0.015625 2.359375 -0.140625 Z M -0.53125 -11.34375 C -0.40625 -10.4375 -0.234375 -9.953125 1.03125 -10.125 C 1.96875 -10.25 2.3125 -10.5 2.265625 -11.25 C 2.25 -11.578125 2.203125 -11.953125 2.125 -12.484375 C 2.0625 -13.03125 1.65625 -13.359375 0.5625 -13.21875 C -0.375 -13.078125 -0.703125 -12.734375 -0.609375 -12 C -0.578125 -11.765625 -0.5625 -11.578125 -0.53125 -11.34375 Z M -0.53125 -11.34375 "/></g></g></g><g fill="#ff3131" fill-opacity="1"><g transform="translate(80.73027, 55.213326)"><g><path d="M 4.4375 -0.4375 C 7.6875 -0.890625 8.546875 -2.03125 8.34375 -3.625 C 8.125 -5.109375 7.234375 -5.890625 4.796875 -5.875 C 3.359375 -5.875 2.9375 -6 2.859375 -6.46875 C 2.8125 -6.828125 3.109375 -7.09375 3.765625 -7.1875 C 4.46875 -7.28125 5.296875 -7.203125 6.0625 -6.84375 C 6.25 -6.765625 6.421875 -6.765625 6.578125 -6.78125 C 6.875 -6.828125 7.15625 -7.03125 7.359375 -7.46875 C 7.515625 -7.796875 7.5625 -8.0625 7.53125 -8.28125 C 7.5 -8.5625 7.3125 -8.75 7 -8.890625 C 6.1875 -9.296875 5.09375 -9.515625 3.4375 -9.296875 C 1.140625 -8.96875 -0.046875 -8.046875 0.203125 -6.203125 C 0.453125 -4.390625 1.640625 -3.859375 3.984375 -3.921875 C 5.34375 -3.953125 5.625 -3.75 5.6875 -3.359375 C 5.734375 -2.9375 5.5 -2.6875 4.5 -2.546875 C 3.625 -2.421875 2.484375 -2.546875 1.53125 -2.796875 C 1.359375 -2.84375 1.203125 -2.859375 1.0625 -2.84375 C 0.71875 -2.796875 0.5 -2.515625 0.328125 -1.84375 C 0.296875 -1.578125 0.265625 -1.359375 0.28125 -1.1875 C 0.328125 -0.875 0.53125 -0.671875 0.859375 -0.59375 C 1.796875 -0.3125 2.921875 -0.234375 4.4375 -0.4375 Z M 4.4375 -0.4375 "/></g></g></g><g fill="#ff3131" fill-opacity="1"><g transform="translate(90.142368, 53.916457)"><g><path d="M 5.34375 -0.5625 C 8.5 -1 9.9375 -2.734375 9.59375 -5.28125 C 9.46875 -6.203125 9.0625 -6.96875 8.453125 -7.484375 C 8.515625 -7.671875 8.53125 -7.84375 8.515625 -8 C 8.484375 -8.25 8.359375 -8.46875 8.125 -8.640625 C 7.171875 -9.328125 5.875 -9.625 4.09375 -9.390625 C 1.046875 -8.96875 -0.296875 -6.84375 0.03125 -4.46875 C 0.421875 -1.625 2.03125 -0.109375 5.34375 -0.5625 Z M 2.625 -4.703125 C 2.453125 -5.953125 3.1875 -6.890625 4.375 -7.046875 C 4.90625 -7.125 5.359375 -7.078125 5.8125 -6.96875 C 5.765625 -6.84375 5.75 -6.71875 5.765625 -6.625 C 5.796875 -6.375 5.984375 -6.1875 6.21875 -6.046875 C 6.671875 -5.734375 6.890625 -5.296875 6.96875 -4.765625 C 7.09375 -3.8125 6.625 -3.078125 5.265625 -2.890625 C 3.734375 -2.671875 2.828125 -3.265625 2.625 -4.703125 Z M 2.625 -4.703125 "/></g></g></g><g fill="#ff3131" fill-opacity="1"><g transform="translate(100.877253, 52.437325)"><g><path d="M 2.359375 -0.140625 C 3.328125 -0.28125 3.671875 -0.65625 3.5625 -1.375 C 3.453125 -2.0625 3.0625 -4.0625 3 -4.546875 C 2.765625 -6.28125 3.5 -6.875 4.265625 -6.984375 C 4.65625 -7.046875 5.015625 -6.984375 5.375 -6.828125 C 5.515625 -6.765625 5.625 -6.75 5.75 -6.765625 C 6.109375 -6.8125 6.4375 -7.15625 6.578125 -7.578125 C 6.703125 -7.953125 6.78125 -8.25 6.75 -8.484375 C 6.71875 -8.6875 6.578125 -8.875 6.34375 -9.03125 C 5.875 -9.375 5.3125 -9.484375 4.5 -9.375 C 3.796875 -9.28125 3.0625 -8.859375 2.59375 -8.125 C 2.453125 -8.75 2.140625 -9.09375 1.015625 -8.9375 C 0.234375 -8.84375 -0.09375 -8.5 -0.015625 -7.59375 C 0.09375 -6.625 0.140625 -5.75 0.296875 -4.609375 C 0.46875 -3.421875 0.6875 -2.0625 0.890625 -1.015625 C 1.015625 -0.421875 1.21875 0 2.359375 -0.140625 Z M 2.359375 -0.140625 "/></g></g></g></svg>